<svg id="kity_svg_6" xmlns="http://www.w3.org/2000/svg" xmlns:xlink="http://www.w3.org/1999/xlink" version="1.1" width="1781" height="917" style="background: rgb(251, 251, 251); visibility: visible;" viewBox="0 0 1781 917"><defs id="kity_defs_7"><linearGradient id="kity_linearGradient_17" x1="0" y1="0" x2="0" y2="1"><stop id="kity_stop_18" offset="0" stop-color="rgb(255, 255, 255)"></stop><stop id="kity_stop_19" offset="1" stop-color="rgb(204, 204, 204)"></stop></linearGradient><marker id="kity_marker_2" orient="auto" refX="6" refY="0" viewBox="-7 -7 14 14" markerWidth="7" markerHeight="7" markerUnits="userSpaceOnUse"><path id="kity_path_3" fill="rgb(191, 115, 115)" stroke="none" d="M6,0A6,6,0,1,1,-6,0A6,6,0,1,1,6,0"></path></marker></defs><g id="kity_g_8"><g id="minder1" text-rendering="optimize-speed"><g id="minder_connect_group1"><path id="kity_path_31" fill="none" stroke="rgb(191, 115, 115)" stroke-width="1" d="M1176,457A187.5,347.5,0,0,1,1363.5,109.5"></path><path id="kity_path_33" fill="none" stroke="rgb(191, 115, 115)" stroke-width="1" d="M1433.5,109.5C1448.5,109.5,1448.5,45.5,1463.5,45.5L1721.5,45.5"></path><path id="kity_path_35" fill="none" stroke="rgb(191, 115, 115)" stroke-width="1" d="M1433.5,109.5C1448.5,109.5,1448.5,97.5,1463.5,97.5L1613.5,97.5"></path><path id="kity_path_37" fill="none" stroke="rgb(191, 115, 115)" stroke-width="1" d="M1433.5,109.5C1448.5,109.5,1448.5,149.5,1463.5,149.5L1673.5,149.5"></path><path id="kity_path_39" fill="none" stroke="rgb(191, 115, 115)" stroke-width="1" d="M1433.5,109.5C1448.5,109.5,1448.5,201.5,1463.5,201.5L1565.5,201.5"></path><path id="kity_path_41" fill="none" stroke="rgb(191, 115, 115)" stroke-width="1" d="M1176,457A187.5,38.5,0,0,1,1363.5,418.5"></path><path id="kity_path_43" fill="none" stroke="rgb(191, 115, 115)" stroke-width="1" d="M1433.5,418.5C1448.5,418.5,1448.5,263.5,1463.5,263.5L1517.5,263.5"></path><path id="kity_path_45" fill="none" stroke="rgb(191, 115, 115)" stroke-width="1" d="M1433.5,418.5C1448.5,418.5,1448.5,315.5,1463.5,315.5L1517.5,315.5"></path><path id="kity_path_47" fill="none" stroke="rgb(191, 115, 115)" stroke-width="1" d="M1433.5,418.5C1448.5,418.5,1448.5,367.5,1463.5,367.5L1529.5,367.5"></path><path id="kity_path_49" fill="none" stroke="rgb(191, 115, 115)" stroke-width="1" d="M1433.5,418.5C1448.5,418.5,1448.5,419.5,1463.5,419.5L1517.5,419.5"></path><path id="kity_path_51" fill="none" stroke="rgb(191, 115, 115)" stroke-width="1" d="M1433.5,418.5C1448.5,418.5,1448.5,471.5,1463.5,471.5L1554.5,471.5"></path><path id="kity_path_53" fill="none" stroke="rgb(191, 115, 115)" stroke-width="1" d="M1433.5,418.5C1448.5,418.5,1448.5,601.5,1463.5,601.5L1518.5,601.5"></path><path id="kity_path_55" fill="none" stroke="rgb(191, 115, 115)" stroke-width="1" d="M1518.5,601.5C1533.5,601.5,1533.5,523.5,1548.5,523.5L1614.5,523.5"></path><path id="kity_path_57" fill="none" stroke="rgb(191, 115, 115)" stroke-width="1" d="M1518.5,601.5C1533.5,601.5,1533.5,575.5,1548.5,575.5L1626.5,575.5"></path><path id="kity_path_59" fill="none" stroke="rgb(191, 115, 115)" stroke-width="1" d="M1518.5,601.5C1533.5,601.5,1533.5,627.5,1548.5,627.5L1626.5,627.5"></path><path id="kity_path_61" fill="none" stroke="rgb(191, 115, 115)" stroke-width="1" d="M1518.5,601.5C1533.5,601.5,1533.5,679.5,1548.5,679.5L1626.5,679.5"></path><path id="kity_path_63" fill="none" stroke="rgb(191, 115, 115)" stroke-width="1" d="M1176,457A187.5,348.5,0,0,0,1363.5,805.5"></path><path id="kity_path_65" fill="none" stroke="rgb(191, 115, 115)" stroke-width="1" d="M1461.5,805.5C1476.5,805.5,1476.5,741.5,1491.5,741.5L1569.5,741.5"></path><path id="kity_path_67" fill="none" stroke="rgb(191, 115, 115)" stroke-width="1" d="M1461.5,805.5C1476.5,805.5,1476.5,793.5,1491.5,793.5L1629.5,793.5"></path><path id="kity_path_69" fill="none" stroke="rgb(191, 115, 115)" stroke-width="1" d="M1461.5,805.5C1476.5,805.5,1476.5,845.5,1491.5,845.5L1641.5,845.5"></path><path id="kity_path_71" fill="none" stroke="rgb(191, 115, 115)" stroke-width="1" d="M1461.5,805.5C1476.5,805.5,1476.5,897.5,1491.5,897.5L1761.5,897.5"></path><path id="kity_path_73" fill="none" stroke="rgb(191, 115, 115)" stroke-width="1" d="M1176,457A187.5,204.5,0,0,0,988.5,252.5"></path><path id="kity_path_75" fill="none" stroke="rgb(191, 115, 115)" stroke-width="1" d="M736.5,252.5C721.5,252.5,721.5,136.5,706.5,136.5L373.5,136.5"></path><path id="kity_path_77" fill="none" stroke="rgb(191, 115, 115)" stroke-width="1" d="M736.5,252.5C721.5,252.5,721.5,188.5,706.5,188.5L356.5,188.5"></path><path id="kity_path_79" fill="none" stroke="rgb(191, 115, 115)" stroke-width="1" d="M736.5,252.5C721.5,252.5,721.5,240.5,706.5,240.5L580.5,240.5"></path><path id="kity_path_81" fill="none" stroke="rgb(191, 115, 115)" stroke-width="1" d="M736.5,252.5C721.5,252.5,721.5,292.5,706.5,292.5L20.5,292.5"></path><path id="kity_path_83" fill="none" stroke="rgb(191, 115, 115)" stroke-width="1" d="M1176,457A187.5,13.5,0,0,1,988.5,470.5"></path><path id="kity_path_85" fill="none" stroke="rgb(191, 115, 115)" stroke-width="1" d="M895.5,470.5C880.5,470.5,880.5,458.5,865.5,458.5L331.5,458.5"></path><path id="kity_path_87" fill="none" stroke="rgb(191, 115, 115)" stroke-width="1" d="M895.5,470.5C880.5,470.5,880.5,510.5,865.5,510.5L461.5,510.5"></path><path id="kity_path_89" fill="none" stroke="rgb(191, 115, 115)" stroke-width="1" d="M1176,457A187.5,205.5,0,0,1,988.5,662.5"></path><path id="kity_path_91" fill="none" stroke="rgb(191, 115, 115)" stroke-width="1" d="M890.5,662.5C875.5,662.5,875.5,572.5,860.5,572.5L750.5,572.5"></path><path id="kity_path_93" fill="none" stroke="rgb(191, 115, 115)" stroke-width="1" d="M890.5,662.5C875.5,662.5,875.5,624.5,860.5,624.5L496.5,624.5"></path><path id="kity_path_95" fill="none" stroke="rgb(191, 115, 115)" stroke-width="1" d="M496.5,624.5C481.5,624.5,481.5,624.5,466.5,624.5L435.5,624.5"></path><path id="kity_path_97" fill="none" stroke="rgb(191, 115, 115)" stroke-width="1" d="M890.5,662.5C875.5,662.5,875.5,676.5,860.5,676.5L490.5,676.5"></path><path id="kity_path_99" fill="none" stroke="rgb(191, 115, 115)" stroke-width="1" d="M890.5,662.5C875.5,662.5,875.5,728.5,860.5,728.5L499.5,728.5"></path><path id="kity_path_314" fill="none" stroke="rgb(191, 115, 115)" stroke-width="1" d="M736.5,252.5C721.5,252.5,721.5,344.5,706.5,344.5L336.5,344.5"></path><path id="kity_path_322" fill="none" stroke="rgb(191, 115, 115)" stroke-width="1" d="M890.5,662.5C875.5,662.5,875.5,780.5,860.5,780.5L620.5,780.5"></path><path id="kity_path_330" fill="none" stroke="rgb(191, 115, 115)" stroke-width="1" d="M736.5,252.5C721.5,252.5,721.5,396.5,706.5,396.5L257.5,396.5"></path></g><g id="minder_node1"><path id="node_outline1" fill="rgb(191, 115, 115)" stroke="rgb(191, 115, 115)" d="M1111.5,436.5h129a5,5,0,0,1,5,5v31a5,5,0,0,1,-5,5h-129a5,5,0,0,1,-5,-5v-31a5,5,0,0,1,5,-5z" stroke-width="3"></path><g id="node_text1" fill="white"><text id="kity_text_22" text-rendering="inherit" font-size="16" dy=".8em" y="446.09999990463257" x="1130.5">whatsoo</text></g><g id="kity_g_170" style="cursor: pointer;"><path id="kity_path_171" fill="none" stroke="none" d="M1208,448h12a2,2,0,0,1,2,2v13a2,2,0,0,1,-2,2h-12a2,2,0,0,1,-2,-2v-13a2,2,0,0,1,2,-2z"></path><path id="kity_path_172" fill="white" stroke="none" d="M1217,459H1211V458h6L1217,459L1217,459zM1217,457H1211V456h6V457zM1217,455H1211V454h6V455zM1216.5,461H1210V452h8v7.5M1217,462l2,-2V451H1209v11"></path></g></g><g id="kity_g_12"><path id="kity_path_13" fill="none" stroke="none" d="M1130.5,456.5h0v0h0z"></path></g><g id="kity_g_14"><path id="kity_path_15" fill="none" stroke="none" d="M1130.5,456.5h0v0h0z"></path><path id="kity_path_16" fill="none" stroke="none"></path></g><g id="minder_node2"><g id="node_expander5" style="cursor: pointer;"><path id="kity_path_221" fill="white" stroke="gray" d="M1364.5,109.5A6,6,0,1,1,1352.5,109.5A6,6,0,1,1,1364.5,109.5"></path><path id="kity_path_222" fill="none" stroke="gray" d="M1354,109.5L1363,109.5"></path></g><path id="node_outline6" fill="rgb(246, 238, 238)" stroke="rgb(191, 115, 115)" d="M1368.5,96.5h62a3,3,0,0,1,3,3v20a3,3,0,0,1,-3,3h-62a3,3,0,0,1,-3,-3v-20a3,3,0,0,1,3,-3z" stroke-width="1"></path><g id="node_text6" fill="black"><text id="kity_text_109" text-rendering="inherit" font-size="14" dy=".8em" y="100.40000009536743" x="1385.5">首页</text></g></g><g id="minder_node3"><g id="node_expander1" style="cursor: pointer;" display="none"><path id="kity_path_209" fill="white" stroke="gray" d="M1473.5,31.5A6,6,0,1,1,1461.5,31.5A6,6,0,1,1,1473.5,31.5"></path><path id="kity_path_210" fill="none" stroke="gray"></path></g><path id="node_outline2" fill="none" stroke="none" d="M1478.5,20.5h238a5,5,0,0,1,5,5v12a5,5,0,0,1,-5,5h-238a5,5,0,0,1,-5,-5v-12a5,5,0,0,1,5,-5z"></path><g id="node_text2" fill="black"><text id="kity_text_101" text-rendering="inherit" font-size="12" dy=".8em" y="23.700000047683716" x="1483.5">搜索、主题发布、个人通知、个人主页入口</text></g></g><g id="minder_node4"><g id="node_expander2" style="cursor: pointer;" display="none"><path id="kity_path_212" fill="white" stroke="gray" d="M1473.5,83.5A6,6,0,1,1,1461.5,83.5A6,6,0,1,1,1473.5,83.5"></path><path id="kity_path_213" fill="none" stroke="gray"></path></g><path id="node_outline3" fill="none" stroke="none" d="M1478.5,72.5h130a5,5,0,0,1,5,5v12a5,5,0,0,1,-5,5h-130a5,5,0,0,1,-5,-5v-12a5,5,0,0,1,5,-5z"></path><g id="node_text3" fill="black"><text id="kity_text_103" text-rendering="inherit" font-size="12" dy=".8em" y="75.70000004768372" x="1483.5">热帖、最新帖右侧展示</text></g></g><g id="minder_node5"><g id="node_expander3" style="cursor: pointer;" display="none"><path id="kity_path_215" fill="white" stroke="gray" d="M1473.5,135.5A6,6,0,1,1,1461.5,135.5A6,6,0,1,1,1473.5,135.5"></path><path id="kity_path_216" fill="none" stroke="gray"></path></g><path id="node_outline4" fill="none" stroke="none" d="M1478.5,124.5h190a5,5,0,0,1,5,5v12a5,5,0,0,1,-5,5h-190a5,5,0,0,1,-5,-5v-12a5,5,0,0,1,5,-5z"></path><g id="node_text4" fill="black"><text id="kity_text_105" text-rendering="inherit" font-size="12" dy=".8em" y="127.70000004768372" x="1483.5">上方标签分类导航（面包屑导航）</text></g></g><g id="minder_node6"><g id="node_expander4" style="cursor: pointer;" display="none"><path id="kity_path_218" fill="white" stroke="gray" d="M1473.5,187.5A6,6,0,1,1,1461.5,187.5A6,6,0,1,1,1473.5,187.5"></path><path id="kity_path_219" fill="none" stroke="gray"></path></g><path id="node_outline5" fill="none" stroke="none" d="M1478.5,176.5h82a5,5,0,0,1,5,5v12a5,5,0,0,1,-5,5h-82a5,5,0,0,1,-5,-5v-12a5,5,0,0,1,5,-5z"></path><g id="node_text5" fill="black"><text id="kity_text_107" text-rendering="inherit" font-size="12" dy=".8em" y="179.70000004768372" x="1483.5">主题列表分页</text></g></g><g id="minder_node7"><g id="node_expander16" style="cursor: pointer;"><path id="kity_path_254" fill="white" stroke="gray" d="M1364.5,418.5A6,6,0,1,1,1352.5,418.5A6,6,0,1,1,1364.5,418.5"></path><path id="kity_path_255" fill="none" stroke="gray" d="M1354,418.5L1363,418.5"></path></g><path id="node_outline17" fill="rgb(246, 238, 238)" stroke="rgb(191, 115, 115)" d="M1368.5,405.5h62a3,3,0,0,1,3,3v20a3,3,0,0,1,-3,3h-62a3,3,0,0,1,-3,-3v-20a3,3,0,0,1,3,-3z" stroke-width="1"></path><g id="node_text17" fill="black"><text id="kity_text_131" text-rendering="inherit" font-size="14" dy=".8em" y="409.40000009536743" x="1385.5">主题</text></g></g><g id="minder_node8"><g id="node_expander6" style="cursor: pointer;" display="none"><path id="kity_path_224" fill="white" stroke="gray" d="M1473.5,249.5A6,6,0,1,1,1461.5,249.5A6,6,0,1,1,1473.5,249.5"></path><path id="kity_path_225" fill="none" stroke="gray"></path></g><path id="node_outline7" fill="none" stroke="none" d="M1478.5,238.5h34a5,5,0,0,1,5,5v12a5,5,0,0,1,-5,5h-34a5,5,0,0,1,-5,-5v-12a5,5,0,0,1,5,-5z"></path><g id="node_text7" fill="black"><text id="kity_text_111" text-rendering="inherit" font-size="12" dy=".8em" y="241.70000004768372" x="1483.5">标题</text></g></g><g id="minder_node9"><g id="node_expander7" style="cursor: pointer;" display="none"><path id="kity_path_227" fill="white" stroke="gray" d="M1473.5,301.5A6,6,0,1,1,1461.5,301.5A6,6,0,1,1,1473.5,301.5"></path><path id="kity_path_228" fill="none" stroke="gray"></path></g><path id="node_outline8" fill="none" stroke="none" d="M1478.5,290.5h34a5,5,0,0,1,5,5v12a5,5,0,0,1,-5,5h-34a5,5,0,0,1,-5,-5v-12a5,5,0,0,1,5,-5z"></path><g id="node_text8" fill="black"><text id="kity_text_113" text-rendering="inherit" font-size="12" dy=".8em" y="293.7000000476837" x="1483.5">正文</text></g></g><g id="minder_node10"><g id="node_expander8" style="cursor: pointer;" display="none"><path id="kity_path_230" fill="white" stroke="gray" d="M1473.5,353.5A6,6,0,1,1,1461.5,353.5A6,6,0,1,1,1473.5,353.5"></path><path id="kity_path_231" fill="none" stroke="gray"></path></g><path id="node_outline9" fill="none" stroke="none" d="M1478.5,342.5h46a5,5,0,0,1,5,5v12a5,5,0,0,1,-5,5h-46a5,5,0,0,1,-5,-5v-12a5,5,0,0,1,5,-5z"></path><g id="node_text9" fill="black"><text id="kity_text_115" text-rendering="inherit" font-size="12" dy=".8em" y="345.7000000476837" x="1483.5">发帖人</text></g></g><g id="minder_node11"><g id="node_expander9" style="cursor: pointer;" display="none"><path id="kity_path_233" fill="white" stroke="gray" d="M1473.5,405.5A6,6,0,1,1,1461.5,405.5A6,6,0,1,1,1473.5,405.5"></path><path id="kity_path_234" fill="none" stroke="gray"></path></g><path id="node_outline10" fill="none" stroke="none" d="M1478.5,394.5h34a5,5,0,0,1,5,5v12a5,5,0,0,1,-5,5h-34a5,5,0,0,1,-5,-5v-12a5,5,0,0,1,5,-5z"></path><g id="node_text10" fill="black"><text id="kity_text_117" text-rendering="inherit" font-size="12" dy=".8em" y="397.7000000476837" x="1483.5">标签</text></g></g><g id="minder_node12"><g id="node_expander10" style="cursor: pointer;" display="none"><path id="kity_path_236" fill="white" stroke="gray" d="M1473.5,457.5A6,6,0,1,1,1461.5,457.5A6,6,0,1,1,1473.5,457.5"></path><path id="kity_path_237" fill="none" stroke="gray"></path></g><path id="node_outline11" fill="none" stroke="none" d="M1478.5,446.5h71a5,5,0,0,1,5,5v12a5,5,0,0,1,-5,5h-71a5,5,0,0,1,-5,-5v-12a5,5,0,0,1,5,-5z"></path><g id="node_text11" fill="black"><text id="kity_text_119" text-rendering="inherit" font-size="12" dy=".8em" y="449.7000000476837" x="1483.5">主题点击数</text></g></g><g id="minder_node13"><g id="node_expander15" style="cursor: pointer;"><path id="kity_path_251" fill="white" stroke="gray" d="M1473.5,587.5A6,6,0,1,1,1461.5,587.5A6,6,0,1,1,1473.5,587.5"></path><path id="kity_path_252" fill="none" stroke="gray" d="M1463,587.5L1472,587.5"></path></g><path id="node_outline16" fill="none" stroke="none" d="M1478.5,576.5h35a5,5,0,0,1,5,5v12a5,5,0,0,1,-5,5h-35a5,5,0,0,1,-5,-5v-12a5,5,0,0,1,5,-5z"></path><g id="node_text16" fill="black"><text id="kity_text_129" text-rendering="inherit" font-size="12" dy=".8em" y="579.7000000476837" x="1483.5">评论</text></g></g><g id="minder_node14"><g id="node_expander11" style="cursor: pointer;" display="none"><path id="kity_path_239" fill="white" stroke="gray" d="M1558.5,509.5A6,6,0,1,1,1546.5,509.5A6,6,0,1,1,1558.5,509.5"></path><path id="kity_path_240" fill="none" stroke="gray"></path></g><path id="node_outline12" fill="none" stroke="none" d="M1563.5,498.5h46a5,5,0,0,1,5,5v12a5,5,0,0,1,-5,5h-46a5,5,0,0,1,-5,-5v-12a5,5,0,0,1,5,-5z"></path><g id="node_text12" fill="black"><text id="kity_text_121" text-rendering="inherit" font-size="12" dy=".8em" y="501.7000000476837" x="1568.5">评论人</text></g></g><g id="minder_node15"><g id="node_expander12" style="cursor: pointer;" display="none"><path id="kity_path_242" fill="white" stroke="gray" d="M1558.5,561.5A6,6,0,1,1,1546.5,561.5A6,6,0,1,1,1558.5,561.5"></path><path id="kity_path_243" fill="none" stroke="gray"></path></g><path id="node_outline13" fill="none" stroke="none" d="M1563.5,550.5h58a5,5,0,0,1,5,5v12a5,5,0,0,1,-5,5h-58a5,5,0,0,1,-5,-5v-12a5,5,0,0,1,5,-5z"></path><g id="node_text13" fill="black"><text id="kity_text_123" text-rendering="inherit" font-size="12" dy=".8em" y="553.7000000476837" x="1568.5">评论时间</text></g></g><g id="minder_node16"><g id="node_expander13" style="cursor: pointer;" display="none"><path id="kity_path_245" fill="white" stroke="gray" d="M1558.5,613.5A6,6,0,1,1,1546.5,613.5A6,6,0,1,1,1558.5,613.5"></path><path id="kity_path_246" fill="none" stroke="gray"></path></g><path id="node_outline14" fill="none" stroke="none" d="M1563.5,602.5h58a5,5,0,0,1,5,5v12a5,5,0,0,1,-5,5h-58a5,5,0,0,1,-5,-5v-12a5,5,0,0,1,5,-5z"></path><g id="node_text14" fill="black"><text id="kity_text_125" text-rendering="inherit" font-size="12" dy=".8em" y="605.7000000476837" x="1568.5">评论内容</text></g></g><g id="minder_node17"><g id="node_expander14" style="cursor: pointer;" display="none"><path id="kity_path_248" fill="white" stroke="gray" d="M1558.5,665.5A6,6,0,1,1,1546.5,665.5A6,6,0,1,1,1558.5,665.5"></path><path id="kity_path_249" fill="none" stroke="gray"></path></g><path id="node_outline15" fill="none" stroke="none" d="M1563.5,654.5h58a5,5,0,0,1,5,5v12a5,5,0,0,1,-5,5h-58a5,5,0,0,1,-5,-5v-12a5,5,0,0,1,5,-5z"></path><g id="node_text15" fill="black"><text id="kity_text_127" text-rendering="inherit" font-size="12" dy=".8em" y="657.7000000476837" x="1568.5">点赞数量</text></g></g><g id="minder_node18"><g id="node_expander21" style="cursor: pointer;"><path id="kity_path_269" fill="white" stroke="gray" d="M1364.5,805.5A6,6,0,1,1,1352.5,805.5A6,6,0,1,1,1364.5,805.5"></path><path id="kity_path_270" fill="none" stroke="gray" d="M1354,805.5L1363,805.5"></path></g><path id="node_outline22" fill="rgb(246, 238, 238)" stroke="rgb(191, 115, 115)" d="M1368.5,792.5h90a3,3,0,0,1,3,3v20a3,3,0,0,1,-3,3h-90a3,3,0,0,1,-3,-3v-20a3,3,0,0,1,3,-3z" stroke-width="1"></path><g id="node_text22" fill="black"><text id="kity_text_141" text-rendering="inherit" font-size="14" dy=".8em" y="796.4000000953674" x="1385.5">个人主页</text></g></g><g id="minder_node19"><g id="node_expander17" style="cursor: pointer;" display="none"><path id="kity_path_257" fill="white" stroke="gray" d="M1501.5,727.5A6,6,0,1,1,1489.5,727.5A6,6,0,1,1,1501.5,727.5"></path><path id="kity_path_258" fill="none" stroke="gray"></path></g><path id="node_outline18" fill="none" stroke="none" d="M1506.5,716.5h58a5,5,0,0,1,5,5v12a5,5,0,0,1,-5,5h-58a5,5,0,0,1,-5,-5v-12a5,5,0,0,1,5,-5z"></path><g id="node_text18" fill="black"><text id="kity_text_133" text-rendering="inherit" font-size="12" dy=".8em" y="719.7000000476837" x="1511.5">个人发帖</text></g></g><g id="minder_node20"><g id="node_expander18" style="cursor: pointer;" display="none"><path id="kity_path_260" fill="white" stroke="gray" d="M1501.5,779.5A6,6,0,1,1,1489.5,779.5A6,6,0,1,1,1501.5,779.5"></path><path id="kity_path_261" fill="none" stroke="gray"></path></g><path id="node_outline19" fill="none" stroke="none" d="M1506.5,768.5h118a5,5,0,0,1,5,5v12a5,5,0,0,1,-5,5h-118a5,5,0,0,1,-5,-5v-12a5,5,0,0,1,5,-5z"></path><g id="node_text19" fill="black"><text id="kity_text_135" text-rendering="inherit" font-size="12" dy=".8em" y="771.7000000476837" x="1511.5">通知列表、主题回复</text></g></g><g id="minder_node21"><g id="node_expander19" style="cursor: pointer;" display="none"><path id="kity_path_263" fill="white" stroke="gray" d="M1501.5,831.5A6,6,0,1,1,1489.5,831.5A6,6,0,1,1,1501.5,831.5"></path><path id="kity_path_264" fill="none" stroke="gray"></path></g><path id="node_outline20" fill="none" stroke="none" d="M1506.5,820.5h130a5,5,0,0,1,5,5v12a5,5,0,0,1,-5,5h-130a5,5,0,0,1,-5,-5v-12a5,5,0,0,1,5,-5z"></path><g id="node_text20" fill="black"><text id="kity_text_137" text-rendering="inherit" font-size="12" dy=".8em" y="823.7000000476837" x="1511.5">关注标签、用户、主题</text></g></g><g id="minder_node22"><g id="node_expander20" style="cursor: pointer;" display="none"><path id="kity_path_266" fill="white" stroke="gray" d="M1501.5,883.5A6,6,0,1,1,1489.5,883.5A6,6,0,1,1,1501.5,883.5"></path><path id="kity_path_267" fill="none" stroke="gray"></path></g><path id="node_outline21" fill="none" stroke="none" d="M1506.5,872.5h250a5,5,0,0,1,5,5v12a5,5,0,0,1,-5,5h-250a5,5,0,0,1,-5,-5v-12a5,5,0,0,1,5,-5z"></path><g id="node_text21" fill="black"><text id="kity_text_139" text-rendering="inherit" font-size="12" dy=".8em" y="875.7000000476837" x="1511.5">基本信息（用户名、邮箱、头像、自我介绍）</text></g></g><g id="minder_node23"><g id="node_expander26" style="cursor: pointer;"><path id="kity_path_284" fill="white" stroke="gray" d="M999.5,252.5A6,6,0,1,1,987.5,252.5A6,6,0,1,1,999.5,252.5"></path><path id="kity_path_285" fill="none" stroke="gray" d="M989,252.5L998,252.5"></path></g><path id="node_outline27" fill="rgb(246, 238, 238)" stroke="rgb(191, 115, 115)" d="M739.5,239.5h244a3,3,0,0,1,3,3v20a3,3,0,0,1,-3,3h-244a3,3,0,0,1,-3,-3v-20a3,3,0,0,1,3,-3z" stroke-width="1"></path><g id="node_text27" fill="black"><text id="kity_text_151" text-rendering="inherit" font-size="14" dy=".8em" y="243.40000009536743" x="756.5">爬虫模块（获取高质量信息模块）</text></g></g><g id="minder_node24"><g id="node_expander22" style="cursor: pointer;" display="none"><path id="kity_path_272" fill="white" stroke="gray" d="M708.5,122.5A6,6,0,1,1,696.5,122.5A6,6,0,1,1,708.5,122.5"></path><path id="kity_path_273" fill="none" stroke="gray"></path></g><path id="node_outline23" fill="none" stroke="none" d="M378.5,111.5h313a5,5,0,0,1,5,5v12a5,5,0,0,1,-5,5h-313a5,5,0,0,1,-5,-5v-12a5,5,0,0,1,5,-5z"></path><g id="node_text23" fill="black"><text id="kity_text_143" text-rendering="inherit" font-size="12" dy=".8em" y="114.70000004768372" x="383.5">github trending（https://www.githubs.cn/trending）</text></g></g><g id="minder_node25"><g id="node_expander23" style="cursor: pointer;" display="none"><path id="kity_path_275" fill="white" stroke="gray" d="M708.5,174.5A6,6,0,1,1,696.5,174.5A6,6,0,1,1,708.5,174.5"></path><path id="kity_path_276" fill="none" stroke="gray"></path></g><path id="node_outline24" fill="none" stroke="none" d="M361.5,163.5h330a5,5,0,0,1,5,5v12a5,5,0,0,1,-5,5h-330a5,5,0,0,1,-5,-5v-12a5,5,0,0,1,5,-5z"></path><g id="node_text24" fill="black"><text id="kity_text_145" text-rendering="inherit" font-size="12" dy=".8em" y="166.70000004768372" x="366.5">国内外知名公司博客内容（https://www.githubs.cn/feed）</text></g></g><g id="minder_node26"><g id="node_expander24" style="cursor: pointer;" display="none"><path id="kity_path_278" fill="white" stroke="gray" d="M708.5,226.5A6,6,0,1,1,696.5,226.5A6,6,0,1,1,708.5,226.5"></path><path id="kity_path_279" fill="none" stroke="gray"></path></g><path id="node_outline25" fill="none" stroke="none" d="M585.5,215.5h106a5,5,0,0,1,5,5v12a5,5,0,0,1,-5,5h-106a5,5,0,0,1,-5,-5v-12a5,5,0,0,1,5,-5z" stroke-width="3"></path><g id="node_text25" fill="black"><text id="kity_text_147" text-rendering="inherit" font-size="12" dy=".8em" y="218.70000004768372" x="590.5">掘金热门板块文章</text></g></g><g id="minder_node27"><g id="node_expander25" style="cursor: pointer;" display="none"><path id="kity_path_281" fill="white" stroke="gray" d="M708.5,278.5A6,6,0,1,1,696.5,278.5A6,6,0,1,1,708.5,278.5"></path><path id="kity_path_282" fill="none" stroke="gray"></path></g><path id="node_outline26" fill="none" stroke="none" d="M25.5,267.5h666a5,5,0,0,1,5,5v12a5,5,0,0,1,-5,5h-666a5,5,0,0,1,-5,-5v-12a5,5,0,0,1,5,-5z" stroke-width="3"></path><g id="node_text26" fill="black"><text id="kity_text_149" text-rendering="inherit" font-size="12" dy=".8em" y="270.7000000476837" x="30.5">个人博客文章（https://github.com/shidenggui/bloghub）(https://github.com/timqian/chinese-independent-blogs)</text></g></g><g id="minder_node28"><g id="node_expander29" style="cursor: pointer;"><path id="kity_path_293" fill="white" stroke="gray" d="M999.5,470.5A6,6,0,1,1,987.5,470.5A6,6,0,1,1,999.5,470.5"></path><path id="kity_path_294" fill="none" stroke="gray" d="M989,470.5L998,470.5"></path></g><path id="node_outline30" fill="rgb(246, 238, 238)" stroke="rgb(191, 115, 115)" d="M898.5,457.5h85a3,3,0,0,1,3,3v20a3,3,0,0,1,-3,3h-85a3,3,0,0,1,-3,-3v-20a3,3,0,0,1,3,-3z" stroke-width="1"></path><g id="node_text30" fill="black"><text id="kity_text_157" text-rendering="inherit" font-size="14" dy=".8em" y="461.40000009536743" x="915.5">bot模块</text></g></g><g id="minder_node29"><g id="node_expander27" style="cursor: pointer;" display="none"><path id="kity_path_287" fill="white" stroke="gray" d="M867.5,444.5A6,6,0,1,1,855.5,444.5A6,6,0,1,1,867.5,444.5"></path><path id="kity_path_288" fill="none" stroke="gray"></path></g><path id="node_outline28" fill="none" stroke="none" d="M336.5,433.5h514a5,5,0,0,1,5,5v12a5,5,0,0,1,-5,5h-514a5,5,0,0,1,-5,-5v-12a5,5,0,0,1,5,-5z"></path><g id="node_text28" fill="black"><text id="kity_text_153" text-rendering="inherit" font-size="12" dy=".8em" y="436.7000000476837" x="341.5">自动抓取知名博客，项目更新信息，优先发送到我的邮箱，然后审查之后点击直接发布到论坛中</text></g></g><g id="minder_node30"><g id="node_expander28" style="cursor: pointer;" display="none"><path id="kity_path_290" fill="white" stroke="gray" d="M867.5,496.5A6,6,0,1,1,855.5,496.5A6,6,0,1,1,867.5,496.5"></path><path id="kity_path_291" fill="none" stroke="gray"></path></g><path id="node_outline29" fill="none" stroke="none" d="M466.5,485.5h384a5,5,0,0,1,5,5v12a5,5,0,0,1,-5,5h-384a5,5,0,0,1,-5,-5v-12a5,5,0,0,1,5,-5z"></path><g id="node_text29" fill="black"><text id="kity_text_155" text-rendering="inherit" font-size="12" dy=".8em" y="488.7000000476837" x="471.5">定时删除无回复主题，点赞超过1k的帖子自动加精并且无法在继续点赞</text></g></g><g id="minder_node31"><g id="node_expander35" style="cursor: pointer;"><path id="kity_path_311" fill="white" stroke="gray" d="M999.5,662.5A6,6,0,1,1,987.5,662.5A6,6,0,1,1,999.5,662.5"></path><path id="kity_path_312" fill="none" stroke="gray" d="M989,662.5L998,662.5"></path></g><path id="node_outline36" fill="rgb(246, 238, 238)" stroke="rgb(191, 115, 115)" d="M893.5,649.5h90a3,3,0,0,1,3,3v20a3,3,0,0,1,-3,3h-90a3,3,0,0,1,-3,-3v-20a3,3,0,0,1,3,-3z" stroke-width="1"></path><g id="node_text36" fill="black"><text id="kity_text_169" text-rendering="inherit" font-size="14" dy=".8em" y="653.4000000953674" x="910.5">技术调研</text></g></g><g id="minder_node32"><g id="node_expander30" style="cursor: pointer;" display="none"><path id="kity_path_296" fill="white" stroke="gray" d="M862.5,558.5A6,6,0,1,1,850.5,558.5A6,6,0,1,1,862.5,558.5"></path><path id="kity_path_297" fill="none" stroke="gray"></path></g><path id="node_outline31" fill="none" stroke="none" d="M755.5,547.5h90a5,5,0,0,1,5,5v12a5,5,0,0,1,-5,5h-90a5,5,0,0,1,-5,-5v-12a5,5,0,0,1,5,-5z"></path><g id="node_text31" fill="black"><text id="kity_text_159" text-rendering="inherit" font-size="12" dy=".8em" y="550.7000000476837" x="760.5">actix-web框架</text></g></g><g id="minder_node33"><g id="node_expander32" style="cursor: pointer;"><path id="kity_path_302" fill="white" stroke="gray" d="M862.5,610.5A6,6,0,1,1,850.5,610.5A6,6,0,1,1,862.5,610.5"></path><path id="kity_path_303" fill="none" stroke="gray" d="M852,610.5L861,610.5"></path></g><path id="node_outline33" fill="none" stroke="none" d="M501.5,599.5h344a5,5,0,0,1,5,5v12a5,5,0,0,1,-5,5h-344a5,5,0,0,1,-5,-5v-12a5,5,0,0,1,5,-5z"></path><g id="node_text33" fill="black"><text id="kity_text_163" text-rendering="inherit" font-size="12" dy=".8em" y="602.7000000476837" x="506.5">https://github.com/bytedance/bytemd&#xa0; &#xa0; markdown编辑器</text></g></g><g id="minder_node34"><g id="node_expander31" style="cursor: pointer;" display="none"><path id="kity_path_299" fill="white" stroke="gray" d="M468.5,610.5A6,6,0,1,1,456.5,610.5A6,6,0,1,1,468.5,610.5"></path><path id="kity_path_300" fill="none" stroke="gray"></path></g><path id="node_outline32" fill="none" stroke="none" d="M440.5,599.5h11a5,5,0,0,1,5,5v12a5,5,0,0,1,-5,5h-11a5,5,0,0,1,-5,-5v-12a5,5,0,0,1,5,-5z"></path><g id="node_text32" fill="black"><text id="kity_text_161" text-rendering="inherit" font-size="12" dy=".8em" y="602.7000000476837" x="445.5"> </text></g></g><g id="minder_node35"><g id="node_expander33" style="cursor: pointer;" display="none"><path id="kity_path_305" fill="white" stroke="gray" d="M862.5,662.5A6,6,0,1,1,850.5,662.5A6,6,0,1,1,862.5,662.5"></path><path id="kity_path_306" fill="none" stroke="gray"></path></g><path id="node_outline34" fill="none" stroke="none" d="M495.5,651.5h350a5,5,0,0,1,5,5v12a5,5,0,0,1,-5,5h-350a5,5,0,0,1,-5,-5v-12a5,5,0,0,1,5,-5z"></path><g id="node_text34" fill="black"><text id="kity_text_165" text-rendering="inherit" font-size="12" dy=".8em" y="654.7000000476837" x="500.5">https://react.geist-ui.dev/zh-cn/components/icons&#xa0; &#xa0; 图标库</text></g></g><g id="minder_node36"><g id="node_expander34" style="cursor: pointer;" display="none"><path id="kity_path_308" fill="white" stroke="gray" d="M862.5,714.5A6,6,0,1,1,850.5,714.5A6,6,0,1,1,862.5,714.5"></path><path id="kity_path_309" fill="none" stroke="gray"></path></g><path id="node_outline35" fill="none" stroke="none" d="M504.5,703.5h341a5,5,0,0,1,5,5v12a5,5,0,0,1,-5,5h-341a5,5,0,0,1,-5,-5v-12a5,5,0,0,1,5,-5z" stroke-width="3"></path><g id="node_text35" fill="black"><text id="kity_text_167" text-rendering="inherit" font-size="12" dy=".8em" y="706.7000000476837" x="509.5">https://react.geist-ui.dev/zh-cn/components/text&#xa0; &#xa0; ui组件</text></g></g><g id="minder_node37"><g id="node_expander36" style="cursor: pointer;" display="none"><path id="kity_path_319" fill="white" stroke="gray" d="M708.5,330.5A6,6,0,1,1,696.5,330.5A6,6,0,1,1,708.5,330.5"></path><path id="kity_path_320" fill="none" stroke="gray"></path></g><path id="node_outline37" fill="none" stroke="none" d="M341.5,319.5h350a5,5,0,0,1,5,5v12a5,5,0,0,1,-5,5h-350a5,5,0,0,1,-5,-5v-12a5,5,0,0,1,5,-5z" stroke-width="3"></path><g id="node_text37" fill="black"><text id="kity_text_316" text-rendering="inherit" font-size="12" dy=".8em" y="322.7000000476837" x="346.5">https://www.mingyantong.com/article/501952&#xa0; &#xa0; 网易云热评</text></g></g><g id="minder_node38"><g id="node_expander37" style="cursor: pointer;" display="none"><path id="kity_path_327" fill="white" stroke="gray" d="M862.5,766.5A6,6,0,1,1,850.5,766.5A6,6,0,1,1,862.5,766.5"></path><path id="kity_path_328" fill="none" stroke="gray"></path></g><path id="node_outline38" fill="none" stroke="none" d="M625.5,755.5h220a5,5,0,0,1,5,5v12a5,5,0,0,1,-5,5h-220a5,5,0,0,1,-5,-5v-12a5,5,0,0,1,5,-5z" stroke-width="3"></path><g id="node_text38" fill="black"><text id="kity_text_324" text-rendering="inherit" font-size="12" dy=".8em" y="758.7000000476837" x="630.5">https://vercel.com/design&#xa0; &#xa0; 设计语音</text></g></g><g id="minder_node39"><g id="node_expander38" style="cursor: pointer;" display="none"><path id="kity_path_335" fill="white" stroke="gray" d="M708.5,382.5A6,6,0,1,1,696.5,382.5A6,6,0,1,1,708.5,382.5"></path><path id="kity_path_336" fill="none" stroke="gray"></path></g><path id="node_outline39" fill="none" stroke="none" d="M262.5,371.5h429a5,5,0,0,1,5,5v12a5,5,0,0,1,-5,5h-429a5,5,0,0,1,-5,-5v-12a5,5,0,0,1,5,-5z" stroke-width="3"></path><g id="node_text39" fill="black"><text id="kity_text_332" text-rendering="inherit" font-size="12" dy=".8em" y="374.7000000476837" x="267.5">https://www.mingyantong.com/&#xa0; &#xa0; 名言网-好句子抓取，文艺摸鱼党的好东西</text></g></g></g></g></svg>